<?xml version="1.0" encoding="UTF-8"?>
<svg version="1.1" xmlns="http://www.w3.org/2000/svg" width="400" height="400">
<path d="M0 0 C5.64331823 2.41710182 10.49751358 5.95274747 15.2734375 9.765625 C17.09315878 11.19466115 17.09315878 11.19466115 20 12 C20 12.66 20 13.32 20 14 C20.9075 14.268125 21.815 14.53625 22.75 14.8125 C25.81666451 15.93301203 27.4785929 17.01343683 30 19 C47.89516914 29.80463042 69.62187861 35.98370732 90 40 C91.20269531 40.268125 92.40539062 40.53625 93.64453125 40.8125 C104.62198514 43.20340095 115.38214716 43.88430157 126.58032227 44.1267395 C129.35350022 44.18795637 132.12643387 44.2582868 134.89941406 44.32781982 C136.96155879 44.37413659 139.02348127 44.40358732 141.0859375 44.43212891 C155.94755507 44.77882582 155.94755507 44.77882582 162.4375 49.9375 C164.87459603 53.15446676 165.12662123 56.21476916 165.1328125 60.171875 C165.13619629 61.46943726 165.13619629 61.46943726 165.13964844 62.79321289 C165.13239746 64.25682251 165.13239746 64.25682251 165.125 65.75 C165.11774902 67.35959595 165.11774902 67.35959595 165.11035156 69.00170898 C165.08838367 72.24438898 165.05768847 75.48686701 165.02282715 78.72943115 C164.99854593 81.1446332 164.98007866 83.55984223 164.96191406 85.97509766 C164.76087929 110.26768646 163.8474193 134.45346574 162.125 158.6875 C162.00336487 160.43790085 162.00336487 160.43790085 161.87927246 162.22366333 C160.89487329 176.18671173 159.46819706 189.97783295 157.32250977 203.81011963 C156.82345383 207.19876985 156.44368577 210.59614977 156.0625 214 C153.21270868 237.03192003 147.95225415 259.94589139 138 281 C137.49597656 282.08410156 136.99195313 283.16820312 136.47265625 284.28515625 C130.67660805 296.3635424 123.20590429 306.2896626 114 316 C112.90171875 317.16015625 112.90171875 317.16015625 111.78125 318.34375 C106.61683305 323.65364349 101.19316668 328.89730655 95 333 C94.01 333 93.02 333 92 333 C92 333.66 92 334.32 92 335 C86.78906512 339.27167995 80.62678179 342.33384075 74.70703125 345.48828125 C71.33335219 347.37228384 68.1802555 349.50917595 64.9921875 351.6875 C62.43276025 353.37371089 59.7752186 354.70489799 57 356 C52.64461471 358.12819963 48.39456142 360.40663585 44.1875 362.8125 C43.57221436 363.1636084 42.95692871 363.5147168 42.32299805 363.87646484 C38.15970953 366.27498192 34.16876376 368.85075586 30.20703125 371.5703125 C27.7041338 373.19165846 25.13049034 374.5956165 22.5 376 C16.34938259 379.28606413 10.50674927 382.92920712 5.125 387.375 C0.43519106 389.81370065 -3.82566252 389.86847131 -9 389 C-12.00027221 387.72358906 -14.62273077 386.24784769 -17 384 C-17 383.34 -17 382.68 -17 382 C-18.2065625 381.690625 -18.2065625 381.690625 -19.4375 381.375 C-23.21576777 379.91672121 -26.07323197 378.05553673 -29.390625 375.7734375 C-38.21866115 369.77354467 -47.36528003 364.58300193 -57 360 C-57 359.34 -57 358.68 -57 358 C-58.175625 357.690625 -58.175625 357.690625 -59.375 357.375 C-63.35941767 355.86366916 -66.67594651 353.87576582 -70.2890625 351.640625 C-73.00365647 349.99778715 -75.76182622 348.49055467 -78.5625 347 C-82.90034161 344.6651844 -86.98395219 342.10835474 -91.02734375 339.296875 C-92.96016481 338.02618868 -94.91188419 336.99033681 -97 336 C-97 335.34 -97 334.68 -97 334 C-98.0209375 333.6596875 -98.0209375 333.6596875 -99.0625 333.3125 C-102.6988709 331.68773854 -106.02829263 329.67196743 -109 327 C-109 326.34 -109 325.68 -109 325 C-109.556875 324.95875 -110.11375 324.9175 -110.6875 324.875 C-113.55465096 323.79013207 -114.7354425 322.05697542 -116.578125 319.6796875 C-118.56070907 317.33762391 -120.85989255 315.49731425 -123.25390625 313.58984375 C-125.45860638 311.58243223 -127.18318807 309.36290568 -129 307 C-129.63679688 306.17242187 -130.27359375 305.34484375 -130.9296875 304.4921875 C-137.54429808 295.59301263 -142.80922409 286.25964029 -147 276 C-147.45117188 274.93136719 -147.90234375 273.86273438 -148.3671875 272.76171875 C-153.33805234 260.55337923 -156.12655793 247.83260777 -159 235 C-159.18127441 234.22156738 -159.36254883 233.44313477 -159.54931641 232.64111328 C-168.63227548 193.24652075 -169.29518577 151.84327318 -170.75 111.625 C-170.78271626 110.72365074 -170.81543251 109.82230148 -170.84914017 108.89363861 C-171.06933878 102.79655549 -171.2798201 96.69918895 -171.484375 90.6015625 C-171.52483224 89.42102421 -171.52483224 89.42102421 -171.5661068 88.21663666 C-171.73813427 83.14496353 -171.88793507 78.07336823 -172 73 C-172.01563492 72.29448753 -172.03126984 71.58897507 -172.04737854 70.86208344 C-172.08719529 68.80565555 -172.11321576 66.74957289 -172.13378906 64.69287109 C-172.14798889 63.51389252 -172.16218872 62.33491394 -172.17681885 61.12020874 C-171.92714771 56.71442243 -170.84970459 53.38130086 -168 50 C-162.83786829 45.89136456 -158.97379934 44.88507936 -152.48828125 44.71875 C-150.52761719 44.66400513 -150.52761719 44.66400513 -148.52734375 44.6081543 C-147.83882324 44.5907016 -147.15030273 44.5732489 -146.44091797 44.55526733 C-142.88338758 44.46289111 -139.32652402 44.34917546 -135.76953125 44.23828125 C-128.39481732 44.01140083 -128.39481732 44.01140083 -125.34521484 43.92333984 C-116.79500626 43.65292369 -108.48559961 42.54812628 -100.0625 41.125 C-98.62197266 40.88269653 -98.62197266 40.88269653 -97.15234375 40.63549805 C-91.90972801 39.6958614 -86.95406333 38.47016327 -81.93994141 36.66699219 C-80 36 -80 36 -76.3125 35.125 C-67.20615621 32.92566348 -58.46058854 29.46401527 -50.17578125 25.125 C-48.2254431 24.11656663 -46.2744493 23.22182847 -44.25 22.375 C-42.02681158 21.43442028 -39.83844368 20.40826376 -37.6875 19.3125 C-35 18 -35 18 -33 18 C-33 17.34 -33 16.68 -33 16 C-31.68 16 -30.36 16 -29 16 C-29 15.34 -29 14.68 -29 14 C-27.13671875 12.4921875 -27.13671875 12.4921875 -24.6875 10.875 C-23.48673828 10.06675781 -23.48673828 10.06675781 -22.26171875 9.2421875 C-20 8 -20 8 -17 8 C-16.67 7.01 -16.34 6.02 -16 5 C-11.1097211 1.27457294 -6.191335 -1.10559554 0 0 Z " fill="#FEFEFE" transform="translate(202,5)"/>
<path d="M0 0 C5.64331823 2.41710182 10.49751358 5.95274747 15.2734375 9.765625 C17.09315878 11.19466115 17.09315878 11.19466115 20 12 C20 12.66 20 13.32 20 14 C20.9075 14.268125 21.815 14.53625 22.75 14.8125 C25.81666451 15.93301203 27.4785929 17.01343683 30 19 C47.89516914 29.80463042 69.62187861 35.98370732 90 40 C91.20269531 40.268125 92.40539062 40.53625 93.64453125 40.8125 C104.62198514 43.20340095 115.38214716 43.88430157 126.58032227 44.1267395 C129.35350022 44.18795637 132.12643387 44.2582868 134.89941406 44.32781982 C136.96155879 44.37413659 139.02348127 44.40358732 141.0859375 44.43212891 C155.94755507 44.77882582 155.94755507 44.77882582 162.4375 49.9375 C164.87459603 53.15446676 165.12662123 56.21476916 165.1328125 60.171875 C165.13619629 61.46943726 165.13619629 61.46943726 165.13964844 62.79321289 C165.13239746 64.25682251 165.13239746 64.25682251 165.125 65.75 C165.11774902 67.35959595 165.11774902 67.35959595 165.11035156 69.00170898 C165.08838367 72.24438898 165.05768847 75.48686701 165.02282715 78.72943115 C164.99854593 81.1446332 164.98007866 83.55984223 164.96191406 85.97509766 C164.76087929 110.26768646 163.8474193 134.45346574 162.125 158.6875 C162.00336487 160.43790085 162.00336487 160.43790085 161.87927246 162.22366333 C160.89487329 176.18671173 159.46819706 189.97783295 157.32250977 203.81011963 C156.82345383 207.19876985 156.44368577 210.59614977 156.0625 214 C153.21270868 237.03192003 147.95225415 259.94589139 138 281 C137.49597656 282.08410156 136.99195313 283.16820312 136.47265625 284.28515625 C130.67660805 296.3635424 123.20590429 306.2896626 114 316 C112.90171875 317.16015625 112.90171875 317.16015625 111.78125 318.34375 C106.61683305 323.65364349 101.19316668 328.89730655 95 333 C94.01 333 93.02 333 92 333 C92 333.66 92 334.32 92 335 C86.78906512 339.27167995 80.62678179 342.33384075 74.70703125 345.48828125 C71.33335219 347.37228384 68.1802555 349.50917595 64.9921875 351.6875 C62.43276025 353.37371089 59.7752186 354.70489799 57 356 C52.64461471 358.12819963 48.39456142 360.40663585 44.1875 362.8125 C43.57221436 363.1636084 42.95692871 363.5147168 42.32299805 363.87646484 C38.15970953 366.27498192 34.16876376 368.85075586 30.20703125 371.5703125 C27.7041338 373.19165846 25.13049034 374.5956165 22.5 376 C16.34938259 379.28606413 10.50674927 382.92920712 5.125 387.375 C0.43519106 389.81370065 -3.82566252 389.86847131 -9 389 C-12.00027221 387.72358906 -14.62273077 386.24784769 -17 384 C-17 383.34 -17 382.68 -17 382 C-18.2065625 381.690625 -18.2065625 381.690625 -19.4375 381.375 C-23.21576777 379.91672121 -26.07323197 378.05553673 -29.390625 375.7734375 C-38.21866115 369.77354467 -47.36528003 364.58300193 -57 360 C-57 359.34 -57 358.68 -57 358 C-58.175625 357.690625 -58.175625 357.690625 -59.375 357.375 C-63.35941767 355.86366916 -66.67594651 353.87576582 -70.2890625 351.640625 C-73.00365647 349.99778715 -75.76182622 348.49055467 -78.5625 347 C-82.90034161 344.6651844 -86.98395219 342.10835474 -91.02734375 339.296875 C-92.96016481 338.02618868 -94.91188419 336.99033681 -97 336 C-97 335.34 -97 334.68 -97 334 C-98.0209375 333.6596875 -98.0209375 333.6596875 -99.0625 333.3125 C-102.6988709 331.68773854 -106.02829263 329.67196743 -109 327 C-109 326.34 -109 325.68 -109 325 C-109.556875 324.95875 -110.11375 324.9175 -110.6875 324.875 C-113.55465096 323.79013207 -114.7354425 322.05697542 -116.578125 319.6796875 C-118.56070907 317.33762391 -120.85989255 315.49731425 -123.25390625 313.58984375 C-125.45860638 311.58243223 -127.18318807 309.36290568 -129 307 C-129.63679688 306.17242187 -130.27359375 305.34484375 -130.9296875 304.4921875 C-137.54429808 295.59301263 -142.80922409 286.25964029 -147 276 C-147.45117188 274.93136719 -147.90234375 273.86273438 -148.3671875 272.76171875 C-153.33805234 260.55337923 -156.12655793 247.83260777 -159 235 C-159.18127441 234.22156738 -159.36254883 233.44313477 -159.54931641 232.64111328 C-168.63227548 193.24652075 -169.29518577 151.84327318 -170.75 111.625 C-170.78271626 110.72365074 -170.81543251 109.82230148 -170.84914017 108.89363861 C-171.06933878 102.79655549 -171.2798201 96.69918895 -171.484375 90.6015625 C-171.52483224 89.42102421 -171.52483224 89.42102421 -171.5661068 88.21663666 C-171.73813427 83.14496353 -171.88793507 78.07336823 -172 73 C-172.01563492 72.29448753 -172.03126984 71.58897507 -172.04737854 70.86208344 C-172.08719529 68.80565555 -172.11321576 66.74957289 -172.13378906 64.69287109 C-172.14798889 63.51389252 -172.16218872 62.33491394 -172.17681885 61.12020874 C-171.92714771 56.71442243 -170.84970459 53.38130086 -168 50 C-162.83786829 45.89136456 -158.97379934 44.88507936 -152.48828125 44.71875 C-150.52761719 44.66400513 -150.52761719 44.66400513 -148.52734375 44.6081543 C-147.83882324 44.5907016 -147.15030273 44.5732489 -146.44091797 44.55526733 C-142.88338758 44.46289111 -139.32652402 44.34917546 -135.76953125 44.23828125 C-128.39481732 44.01140083 -128.39481732 44.01140083 -125.34521484 43.92333984 C-116.79500626 43.65292369 -108.48559961 42.54812628 -100.0625 41.125 C-98.62197266 40.88269653 -98.62197266 40.88269653 -97.15234375 40.63549805 C-91.90972801 39.6958614 -86.95406333 38.47016327 -81.93994141 36.66699219 C-80 36 -80 36 -76.3125 35.125 C-67.20615621 32.92566348 -58.46058854 29.46401527 -50.17578125 25.125 C-48.2254431 24.11656663 -46.2744493 23.22182847 -44.25 22.375 C-42.02681158 21.43442028 -39.83844368 20.40826376 -37.6875 19.3125 C-35 18 -35 18 -33 18 C-33 17.34 -33 16.68 -33 16 C-31.68 16 -30.36 16 -29 16 C-29 15.34 -29 14.68 -29 14 C-27.13671875 12.4921875 -27.13671875 12.4921875 -24.6875 10.875 C-23.48673828 10.06675781 -23.48673828 10.06675781 -22.26171875 9.2421875 C-20 8 -20 8 -17 8 C-16.67 7.01 -16.34 6.02 -16 5 C-11.1097211 1.27457294 -6.191335 -1.10559554 0 0 Z M-11.25 38 C-27.09775677 48.48329214 -44.02875832 55.97475033 -62 62 C-62.68819824 62.23251465 -63.37639648 62.4650293 -64.08544922 62.70458984 C-73.60069562 65.8930761 -83.08381658 68.35309357 -93 70 C-94.12172607 70.18925049 -94.12172607 70.18925049 -95.26611328 70.38232422 C-110.43473638 72.8851625 -125.66656693 74.02802752 -141 75 C-141.35920546 116.93160101 -141.35920546 116.93160101 -138.52734375 158.734375 C-137.98574645 163.81539996 -137.66681816 168.90145827 -137.34960938 174.00073242 C-136.65179217 185.06644454 -135.61857851 196.02002204 -134.0625 207 C-133.90475098 208.12607666 -133.74700195 209.25215332 -133.58447266 210.41235352 C-132.62737238 216.85142082 -131.33261071 223.10912315 -129.67529297 229.40478516 C-129.07290768 231.71980887 -128.5461712 234.03283087 -128.0625 236.375 C-123.09155557 258.94797715 -113.65359751 286.83112738 -94 301 C-93.34 301 -92.68 301 -92 301 C-92 301.66 -92 302.32 -92 303 C-86.12599847 307.99627716 -79.79214255 312.36135221 -73 316 C-71.05886402 317.1187146 -69.12175578 318.24443119 -67.1875 319.375 C-66.15109375 319.97957031 -65.1146875 320.58414062 -64.046875 321.20703125 C-61.33081683 322.80532702 -58.63179431 324.42790425 -55.9375 326.0625 C-51.68168835 328.62681258 -47.34637488 331.01160852 -42.9765625 333.375 C-31.97674314 339.38015072 -20.93987649 345.57827204 -10.5859375 352.6484375 C-9.89757812 353.11507813 -9.20921875 353.58171875 -8.5 354.0625 C-7.9328125 354.46597656 -7.365625 354.86945313 -6.78125 355.28515625 C-4.11552001 356.35495579 -2.72309302 355.89326895 0 355 C2.32576617 353.64049417 4.52803753 352.25948043 6.75 350.75 C8.00253213 349.92109694 9.25643634 349.09426338 10.51171875 348.26953125 C11.41543213 347.67519287 11.41543213 347.67519287 12.33740234 347.06884766 C15.03693022 345.33338025 17.84375335 343.8242097 20.66796875 342.3046875 C23.6292066 340.64798157 26.49482477 338.85626365 29.375 337.0625 C34.29705517 334.0084192 39.28145138 331.16333283 44.38671875 328.4296875 C47.81003527 326.55684169 51.12955598 324.53055636 54.4609375 322.5 C57.14250391 320.91581308 59.87202434 319.45611936 62.625 318 C66.76392437 315.77269748 70.47958017 313.32800088 74.1484375 310.39453125 C76 309 76 309 78.30078125 307.671875 C101.50088106 293.30191448 112.4439663 269.18488097 120 244 C120.36996094 242.77410156 120.73992187 241.54820312 121.12109375 240.28515625 C124.43157885 228.21541098 125.9030839 215.82576588 127.53857422 203.43896484 C127.95200382 200.35771125 128.39266765 197.28236744 128.84765625 194.20703125 C131.0319477 179.09845531 131.9431566 163.96467308 132.78051758 148.7355957 C132.99447035 145.09411482 133.24961561 141.45803353 133.51953125 137.8203125 C133.99053099 131.36225136 134.32211916 124.90803884 134.5625 118.4375 C134.6049585 117.30723389 134.64741699 116.17696777 134.69116211 115.01245117 C135.14481467 101.67579616 135.09479445 88.34268323 135 75 C134.39865234 74.95512451 133.79730469 74.91024902 133.17773438 74.86401367 C86.26139994 71.30450719 40.12440627 63.27401162 0.76171875 35.734375 C-4.32044711 32.54274608 -6.84768598 35.00159503 -11.25 38 Z " fill="#3374BA" transform="translate(202,5)"/>
</svg>
