<?xml version="1.0" encoding="UTF-8"?>
<svg version="1.1" xmlns="http://www.w3.org/2000/svg" width="157" height="157">
<path d="M0 0 C1.2802002 0.00902344 2.56040039 0.01804688 3.87939453 0.02734375 C21.72265497 0.35445126 37.80990358 5.92924931 51.6875 17.4375 C51.6875 18.0975 51.6875 18.7575 51.6875 19.4375 C52.28175781 19.71207031 52.87601563 19.98664062 53.48828125 20.26953125 C65.15801979 26.46713662 72.78566231 43.49693648 76.6875 55.4375 C82.58473621 75.06569161 80.17439049 98.4784342 70.75 116.4375 C68.04338834 121.3315699 65.2625867 126.12636603 61.6875 130.4375 C61.0275 130.4375 60.3675 130.4375 59.6875 130.4375 C59.41292969 131.03175781 59.13835937 131.62601563 58.85546875 132.23828125 C52.65786338 143.90801979 35.62806352 151.53566231 23.6875 155.4375 C1.88690607 161.99519216 -20.96663917 157.73291212 -40.62109375 147.53515625 C-44.42890592 145.44980544 -47.8927097 143.11596801 -51.3125 140.4375 C-51.3125 139.7775 -51.3125 139.1175 -51.3125 138.4375 C-51.88613281 138.19257813 -52.45976563 137.94765625 -53.05078125 137.6953125 C-64.53708167 131.30742177 -72.05764592 115.23827717 -75.8125 103.1875 C-76.33614693 101.27715841 -76.84002765 99.36113744 -77.3125 97.4375 C-77.48612061 96.8504126 -77.65974121 96.2633252 -77.83862305 95.65844727 C-82.70645463 72.84409183 -76.73568338 51.13026737 -64.75390625 31.94140625 C-63.4375 30 -63.4375 30 -61.3125 27.4375 C-60.6525 27.4375 -59.9925 27.4375 -59.3125 27.4375 C-59.03792969 26.84324219 -58.76335938 26.24898437 -58.48046875 25.63671875 C-52.39767699 14.18316771 -35.65272144 6.37425357 -23.76953125 2.63793945 C-15.77623171 0.4514964 -8.26534296 -0.06966706 0 0 Z " fill="#2158E9" transform="translate(78.3125,-0.4375)"/>
<path d="M0 0 C8.7360995 7.5877603 15.61975721 16.30303536 17.34765625 28.0390625 C18.29201605 43.04045015 16.45191084 55.22424513 6.34765625 67.0390625 C1.27852464 72.30877126 -3.87501673 76.28826506 -10.65234375 79.0390625 C-11.57660156 79.48572266 -11.57660156 79.48572266 -12.51953125 79.94140625 C-22.27644117 84.06056861 -34.98614197 83.4516762 -44.77734375 79.9140625 C-57.34024778 74.27100147 -66.46533927 64.82807354 -71.65234375 52.0390625 C-75.40667529 41.66995634 -75.18118007 28.10886143 -70.65234375 18.0390625 C-64.30333496 4.95440657 -54.89336684 -2.58776871 -41.65234375 -7.9609375 C-27.50420451 -11.81337669 -11.57268397 -8.84416499 0 0 Z " fill="#FBFDFE" transform="translate(106.65234375,41.9609375)"/>
<path d="M0 0 C1.21042969 -0.00128906 2.42085937 -0.00257812 3.66796875 -0.00390625 C4.94285156 -0.00003906 6.21773437 0.00382812 7.53125 0.0078125 C9.44357422 0.00201172 9.44357422 0.00201172 11.39453125 -0.00390625 C13.21017578 -0.00197266 13.21017578 -0.00197266 15.0625 0 C16.18205078 0.00112793 17.30160156 0.00225586 18.45507812 0.00341797 C21.03125 0.1328125 21.03125 0.1328125 22.03125 1.1328125 C22.13108058 3.12038278 22.16205753 5.1114877 22.1640625 7.1015625 C22.16599609 8.91720703 22.16599609 8.91720703 22.16796875 10.76953125 C22.16410156 12.04441406 22.16023438 13.31929687 22.15625 14.6328125 C22.16205078 16.54513672 22.16205078 16.54513672 22.16796875 18.49609375 C22.16667969 19.70652344 22.16539063 20.91695312 22.1640625 22.1640625 C22.16293457 23.28361328 22.16180664 24.40316406 22.16064453 25.55664062 C22.03125 28.1328125 22.03125 28.1328125 21.03125 29.1328125 C19.04367972 29.23264308 17.0525748 29.26362003 15.0625 29.265625 C13.85207031 29.26691406 12.64164063 29.26820312 11.39453125 29.26953125 C10.11964844 29.26566406 8.84476563 29.26179688 7.53125 29.2578125 C6.25636719 29.26167969 4.98148438 29.26554687 3.66796875 29.26953125 C1.85232422 29.26759766 1.85232422 29.26759766 0 29.265625 C-1.11955078 29.26449707 -2.23910156 29.26336914 -3.39257812 29.26220703 C-5.96875 29.1328125 -5.96875 29.1328125 -6.96875 28.1328125 C-7.06858058 26.14524222 -7.09955753 24.1541373 -7.1015625 22.1640625 C-7.10285156 20.95363281 -7.10414062 19.74320313 -7.10546875 18.49609375 C-7.10160156 17.22121094 -7.09773438 15.94632813 -7.09375 14.6328125 C-7.09761719 13.35792969 -7.10148437 12.08304688 -7.10546875 10.76953125 C-7.10417969 9.55910156 -7.10289063 8.34867188 -7.1015625 7.1015625 C-7.10043457 5.98201172 -7.09930664 4.86246094 -7.09814453 3.70898438 C-6.85584478 -1.11506653 -4.23855088 0.00427027 0 0 Z " fill="#2158E8" transform="translate(70.96875,63.8671875)"/>
</svg>
