<svg width="160" height="172" viewBox="0 0 160 172" fill="none" xmlns="http://www.w3.org/2000/svg">
<rect x="7.53622" y="0.680664" width="29.0567" height="139.085" rx="14.5284" fill="#6F32E8"/>
<rect x="77.705" y="4.81128" width="32.152" height="146.281" rx="16.076" transform="rotate(32.0868 77.705 4.81128)" fill="#E5B80B"/>
<rect x="70.4478" y="0.5" width="29.0567" height="139.085" rx="14.5284" fill="#6F32E8"/>
<rect x="70.4478" y="87.3582" width="29.0567" height="89.2252" rx="14.5284" transform="rotate(-89.982 70.4478 87.3582)" fill="#6F32E8"/>
<rect x="134.028" y="81.3828" width="16.9398" height="17.1653" rx="8.46991" transform="rotate(-89.982 134.028 81.3828)" fill="white"/>
<path d="M17.1387 162.823C17.1387 163.382 17.0345 163.906 16.8262 164.395C16.6178 164.877 16.3314 165.3 15.9668 165.664C15.6087 166.022 15.1855 166.306 14.6973 166.514C14.2155 166.722 13.6979 166.826 13.1445 166.826H0.976562V164.824H13.1445C13.4245 164.824 13.6849 164.772 13.9258 164.668C14.1667 164.564 14.375 164.421 14.5508 164.239C14.7331 164.056 14.8763 163.845 14.9805 163.604C15.0846 163.356 15.1367 163.096 15.1367 162.823C15.1367 162.549 15.0846 162.292 14.9805 162.051C14.8763 161.81 14.7331 161.599 14.5508 161.416C14.375 161.234 14.1667 161.091 13.9258 160.987C13.6849 160.882 13.4245 160.83 13.1445 160.83H4.98047C4.43359 160.83 3.91602 160.726 3.42773 160.518C2.93945 160.309 2.51302 160.026 2.14844 159.668C1.79036 159.304 1.50391 158.877 1.28906 158.389C1.08073 157.901 0.976562 157.38 0.976562 156.826C0.976562 156.28 1.08073 155.762 1.28906 155.274C1.50391 154.785 1.79036 154.362 2.14844 154.004C2.51302 153.64 2.93945 153.353 3.42773 153.145C3.91602 152.93 4.43359 152.823 4.98047 152.823H16.1426V154.824H4.98047C4.70703 154.824 4.44661 154.877 4.19922 154.981C3.95833 155.085 3.74674 155.228 3.56445 155.41C3.38216 155.593 3.23893 155.808 3.13477 156.055C3.0306 156.296 2.97852 156.553 2.97852 156.826C2.97852 157.1 3.0306 157.36 3.13477 157.608C3.23893 157.849 3.38216 158.06 3.56445 158.242C3.74674 158.425 3.95833 158.568 4.19922 158.672C4.44661 158.776 4.70703 158.828 4.98047 158.828H13.1445C13.6979 158.828 14.2155 158.936 14.6973 159.151C15.1855 159.359 15.6087 159.645 15.9668 160.01C16.3314 160.368 16.6178 160.791 16.8262 161.28C17.0345 161.761 17.1387 162.276 17.1387 162.823ZM29.2898 166.826H27.2879V154.824H20.2078V152.823H36.3699V154.824H29.2898V166.826ZM55.9625 166.826H53.9605V162.823H42.7887V160.83H53.9605V154.824H46.7828C46.0992 154.824 45.4547 154.958 44.8492 155.225C44.2438 155.485 43.7164 155.843 43.2672 156.299C42.818 156.748 42.4599 157.276 42.193 157.881C41.9326 158.487 41.8023 159.134 41.8023 159.824V166.826H39.8004V159.824C39.8004 159.18 39.8818 158.561 40.0445 157.969C40.2138 157.37 40.4482 156.813 40.7477 156.299C41.0536 155.778 41.4182 155.306 41.8414 154.883C42.2711 154.453 42.7431 154.086 43.2574 153.78C43.7783 153.474 44.3349 153.239 44.9273 153.076C45.5198 152.907 46.1383 152.823 46.7828 152.823H55.9625V166.826ZM77.8012 166.826H75.1059L67.9574 159.629L63.5238 162.823V166.826H61.5219V152.823H63.5238V160.625L74.5004 152.823H77.4203L69.4809 158.526L77.8012 166.826ZM96.0754 166.826H81.593V152.823H96.0754V154.824H83.5949V164.824H96.0754V166.826ZM94.3762 160.83H84.591V158.828H94.3762V160.83ZM116.684 166.826H114.682V162.823H103.51V160.83H114.682V154.824H107.504C106.82 154.824 106.176 154.958 105.57 155.225C104.965 155.485 104.438 155.843 103.988 156.299C103.539 156.748 103.181 157.276 102.914 157.881C102.654 158.487 102.523 159.134 102.523 159.824V166.826H100.521V159.824C100.521 159.18 100.603 158.561 100.766 157.969C100.935 157.37 101.169 156.813 101.469 156.299C101.775 155.778 102.139 155.306 102.562 154.883C102.992 154.453 103.464 154.086 103.979 153.78C104.499 153.474 105.056 153.239 105.648 153.076C106.241 152.907 106.859 152.823 107.504 152.823H116.684V166.826ZM138.405 166.826H135.7L131.501 162.823H125.368V160.85H133.405C133.822 160.85 134.212 160.772 134.577 160.615C134.942 160.453 135.257 160.235 135.524 159.961C135.798 159.688 136.012 159.369 136.169 159.004C136.325 158.633 136.403 158.239 136.403 157.823C136.403 157.406 136.325 157.015 136.169 156.651C136.012 156.286 135.798 155.97 135.524 155.703C135.257 155.43 134.942 155.215 134.577 155.059C134.212 154.903 133.822 154.824 133.405 154.824H124.245V166.826H122.243V152.823H133.405C134.095 152.823 134.743 152.956 135.348 153.223C135.954 153.483 136.481 153.841 136.93 154.297C137.386 154.746 137.744 155.274 138.005 155.879C138.272 156.485 138.405 157.132 138.405 157.823C138.405 158.448 138.298 159.04 138.083 159.6C137.868 160.153 137.572 160.651 137.194 161.094C136.817 161.53 136.371 161.895 135.856 162.188C135.348 162.474 134.798 162.666 134.206 162.764L138.405 166.826ZM150.693 166.826H148.691V154.824H141.611V152.823H157.773V154.824H150.693V166.826Z" fill="black"/>
</svg>
